<svg xmlns="http://www.w3.org/2000/svg" width="1024" height="1024"><path fill="#0D1719" d="M170.85.608c3.772.007 7.544-.004 11.316-.012q9.893-.018 19.787-.007c9.808.009 19.617 0 29.425-.01 17.523-.02 35.047-.023 52.57-.018a68161 68161 0 0 0 61.507-.007c28.851-.01 57.702-.016 86.553-.008l3.294.001 26.474.008Q513.399.569 565.02.533A135336 135336 0 0 1 696.584.504q22.983.002 45.966-.019a27856 27856 0 0 1 52.298.002q14.617.017 29.233-.009a4846 4846 0 0 1 19.57.01c3.707.008 7.414.01 11.121-.005 20.698-.08 40.588 1.223 60.29 8.08l2.982 1.02c40.436 14.412 72.244 44.952 90.858 83.28 3.348 7.149 6.012 14.476 8.348 22.012l.71 2.245c5.23 17.744 5.48 35.403 5.425 53.754-.007 3.776.003 7.552.01 11.327q.014 9.903.003 19.806c-.011 9.817-.006 19.634.004 29.452q.02 26.307.005 52.614a63459 63459 0 0 0-.002 61.547c.01 38.792 0 77.585-.015 116.377q-.021 51.663.001 103.326a177527 177527 0 0 1 .01 128.56v3.081q-.005 23.004.008 46.008.013 26.164-.01 52.33-.015 14.63.002 29.263.01 9.786-.01 19.573-.014 5.566 0 11.134c.05 18.48-.527 36.094-6.141 53.853l-.778 2.51C1010.509 930.326 1001.39 947.77 989 963l-1.371 1.695c-26.06 32.001-63.142 53.026-104.333 58.089-4.13.389-8.259.37-12.405.374l-3.014.015q-4.996.022-9.994.032l-7.224.03q-8.861.036-17.722.062-10.538.033-21.074.074-22.878.085-45.756.154l-2.389.008-2.394.007-24.016.078c-92.372.305-184.744.556-341.739.416q-18.597-.031-37.194-.053a52645 52645 0 0 1-100.96-.202q-13.492-.035-26.986-.05-16.296-.017-32.59-.083c-5.536-.023-11.072-.039-16.609-.038q-7.644 0-15.29-.05a713 713 0 0 0-5.487-.004c-17.507.048-34.921-2.342-51.515-8.117l-2.982-1.02c-40.436-14.412-72.244-44.952-90.858-83.28-3.348-7.149-6.012-14.476-8.348-22.012l-.71-2.245C.81 889.136.56 871.477.615 853.126c.007-3.776-.003-7.552-.01-11.327q-.014-9.903-.003-19.806c.011-9.817.006-19.634-.004-29.452-.015-17.538-.014-35.076-.005-52.614q.011-23.022.006-46.044l-.001-3.089-.003-12.414c-.01-38.792 0-77.585.015-116.377q.021-51.663 0-103.326a177527 177527 0 0 1-.01-128.56v-3.081q.005-23.004-.008-46.008-.013-26.164.01-52.33.015-14.63-.002-29.263-.01-9.786.01-19.573.014-5.566 0-11.134c-.05-18.48.527-36.094 6.141-53.853l.778-2.51C13.491 93.676 22.608 76.226 35 61l1.387-1.71c20.615-25.255 47.391-42.903 78.488-52.54l2.245-.71C134.854.812 152.508.56 170.85.608"/><path fill="#01EC8A" d="M623 158h299c-.75 4.497-1.211 6.932-3.074 10.793l-1.266 2.644-1.347 2.75-1.37 2.837c-2.77 5.7-5.66 11.298-8.771 16.82a63 63 0 0 0-2.86 6.031C902 203 902 203 900.579 205.348c-1.593 2.677-2.878 5.368-4.14 8.214-1.417 3.183-2.854 6.335-4.438 9.438h-2l-.357 2.177c-.666 2.922-1.645 5.29-2.936 7.991l-1.412 2.959-1.482 3.06-1.424 3.002c-2.77 5.76-5.753 11.253-9.183 16.648-1.16 2.08-1.758 3.838-2.206 6.163h-2l-.312 2.188c-.76 3.103-2.01 5.102-3.688 7.812q-1.078 2.52-2.144 5.042c-1.463 3.345-3.137 6.58-4.793 9.833-2.52 4.983-4.922 9.975-7.13 15.105-1.415 3.062-3.09 5.965-4.785 8.88-1.247 2.324-2.172 4.69-3.148 7.14-1.487 3.039-3.025 6.049-4.562 9.063A96 96 0 0 0 835 338h-2l-.586 1.793c-1.358 4.122-2.735 8.202-4.414 12.207h-2l-.754 2.504c-1.427 4.003-3.24 7.663-5.183 11.433A238 238 0 0 0 813 381a447 447 0 0 1-4.187 8.438l-1.116 2.216Q806.351 394.33 805 397h-2l-.34 2.137c-.723 3.137-1.855 5.764-3.222 8.676l-1.38 2.957L797 413h-2l-.25 1.938c-1.045 4.267-2.89 8.093-4.75 12.062h-2l-.25 2.063c-.789 3.089-2.123 5.439-3.762 8.156-1.376 2.48-2.194 5.067-2.988 7.781h-2l-.357 2.182c-.662 2.9-1.633 5.228-2.928 7.9l-1.358 2.822-1.42 2.909-1.431 2.966Q769.76 467.393 768 471h-2l-.586 1.793c-1.358 4.122-2.735 8.202-4.414 12.207h-2l-1 3.5c-1.812 5.488-4.404 10.526-7.043 15.65A174 174 0 0 0 745 517h-2l-.621 1.863L739 529h-2l-.491 1.65c-1.832 5.846-4.26 11.049-7.197 16.413q-1.343 2.502-2.683 5.007l-1.343 2.505c-2.905 5.479-5.633 11.048-8.382 16.606-1.904 3.832-3.843 7.646-5.775 11.464-1.22 2.417-1.22 2.417-2.129 5.355h-2l-1 3.5c-2.254 6.763-5.642 13.005-8.889 19.33-1.87 3.65-3.71 7.316-5.548 10.982l-1.036 2.048c-1.353 2.69-2.573 5.278-3.527 8.14h-2l-1 3.5c-3.663 10.972-9.764 21.245-15.298 31.364-2.152 3.967-3.978 7.972-5.702 12.136h-2l-.312 2.063c-.835 3.566-2.183 6.6-3.688 9.937h-2l-1 3.5c-1.83 5.55-4.464 10.644-7.13 15.826-1.804 3.507-3.486 6.974-4.87 10.674h-2l-.445 1.836c-1.574 5.877-3.801 10.507-7.059 15.625-2.343 3.977-3.93 8.209-5.496 12.539h-2l-.445 1.836c-1.587 5.926-3.843 10.655-7.125 15.824-1.841 3.013-3.145 6.057-4.43 9.34h-2l-.34 2.137c-.723 3.137-1.855 5.764-3.222 8.676l-1.38 2.957L605 794h-2l-1.125 3.813c-1.597 4.822-3.884 9.046-6.379 13.457-2.085 3.804-3.818 7.732-5.496 11.73h-2l-.25 1.938c-1.045 4.267-2.89 8.093-4.75 12.062h-2l-.75 2.438c-1.51 4.305-3.352 8.416-5.25 12.562h-2l-.312 2.188c-.76 3.103-2.01 5.102-3.688 7.812a248 248 0 0 0-2.105 4.887c-1.869 4.413-3.901 8.755-5.895 13.113h-2c-.182.568-.364 1.137-.55 1.723-1.59 4.884-3.355 9.587-5.45 14.277h-2l-.516 1.723c-1.396 4.45-2.953 8.344-5.394 12.351-1.306 2.308-2.342 4.683-3.403 7.114-2.342 5.273-5.17 10.145-8.12 15.097-1.838 3.184-3.213 6.299-4.567 9.715a760 760 0 0 1-2.187 4.938l-1.043 2.34L525 951h-2l-.445 1.617c-1.934 6.425-4.928 11.76-8.555 17.383-1.766-.055-1.766-.055-4-1a67 67 0 0 1-3.75-7.125q-1.049-2.2-2.102-4.398l-1.075-2.265c-1.636-3.373-3.412-6.666-5.198-9.962-3.42-6.356-6.68-12.779-9.875-19.25a3278 3278 0 0 0-3.014-6.078q-1.041-2.095-2.076-4.193c-2.159-4.348-4.477-8.512-7.195-12.542-1.774-5.428.13-10.251 2.578-15.105q1.43-2.645 2.894-5.27 1.505-2.775 3-5.554l1.465-2.71c2.684-5.074 5.038-10.295 7.348-15.548h2l1-3.5c3.245-9.75 8.312-19.107 13.934-27.68 1.638-2.797 2.677-5.786 3.82-8.812 2.696-6.509 6.041-12.738 9.246-19.008h2l.621-2.117.817-2.758.808-2.742C528 790 528 790 529 788h2l1-3.5c2.255-6.766 5.645-13.01 8.893-19.339a1453 1453 0 0 0 5.482-10.848l1.01-1.997c1.703-3.386 3.273-6.77 4.615-10.316h2l.445-1.617c1.66-5.513 4.014-9.973 7.075-14.832 1.92-3.308 3.205-6.736 4.546-10.309 1.257-3.018 3.11-5.537 4.934-8.242a88 88 0 0 0 2.191-6.07c.809-1.93.809-1.93 2.29-3.899 1.58-2.112 2.375-3.935 3.269-6.406 2.598-6.78 5.94-13.172 9.25-19.625h2c.182-.568.364-1.137.55-1.723 1.59-4.884 3.355-9.587 5.45-14.277h2l1-3.5c2.254-6.763 5.642-13.002 8.889-19.326 1.875-3.67 3.71-7.36 5.548-11.049l1.997-3.992L617 614l1-2h2l.33-2.128c.752-3.222 1.944-5.855 3.393-8.829l1.63-3.37 1.71-3.486 1.72-3.544q2.1-4.326 4.217-8.643h2l.293-2.078c.85-3.515 2.355-6.49 4.02-9.672 3.652-7.127 7.126-14.329 10.562-21.562 3.956-8.302 8.064-16.486 12.408-24.59 3.738-7.023 7.136-14.192 10.528-21.387 3.19-6.726 6.566-13.328 10.064-19.899 3.799-7.135 7.284-14.231 10.125-21.812h2l.281-2.055c.89-3.65 2.491-6.763 4.219-10.07A660 660 0 0 0 709 429.5l1.205-2.555q1.399-2.972 2.795-5.945h2l.516-1.652c1.81-5.632 3.987-10.987 6.484-16.348h2l.621-1.863L728 391h2l1.184-3.82c1.86-5.57 4.314-10.78 6.879-16.055l1.464-3.037c3.874-7.982 7.96-15.838 12.133-23.666 3.25-6.107 6.317-12.302 9.385-18.501a958 958 0 0 1 2.842-5.663 932 932 0 0 0 10.085-20.612 698 698 0 0 1 14.755-29.357c3.214-6.035 6.24-12.16 9.273-18.289q2.154-4.313 4.313-8.625l1.988-3.977L808 232H666l-3 9h-2l-.586 2.047-.789 2.703-.773 2.672c-.773 2.339-1.688 4.412-2.852 6.578h-2l-.586 1.793c-1.358 4.122-2.735 8.202-4.414 12.207h-2l-.55 1.977c-1.425 4.95-2.944 9.488-5.45 14.023h-2l-.621 1.898-.817 2.477-.808 2.46C636 294 636 294 635 296h-2l-.586 1.793c-1.358 4.122-2.735 8.202-4.414 12.207h-2l-.34 1.61c-.829 3-2.008 5.774-3.222 8.64l-1.38 3.266L620 326h-2l-.25 1.938c-1.045 4.267-2.89 8.093-4.75 12.062h-2l-.75 2.438c-2.616 7.456-6.142 14.424-9.875 21.375a972 972 0 0 0-10.875 21.062l-1.276 2.538c-1.904 3.818-3.655 7.618-5.224 11.587a149 149 0 0 1-2.437 4.375c-1.517 2.676-2.81 5.214-4 8.063-1.346 3.068-2.817 5.717-4.563 8.562-2.387 3.899-4.299 7.746-6 12a645 645 0 0 1-2.062 4.688l-.973 2.199A163 163 0 0 1 560 445h-2l-.312 2.188c-.76 3.103-2.01 5.102-3.688 7.812l-1.437 3.375a67 67 0 0 1-4.5 8.656c-1.239 2.295-2.225 4.672-3.237 7.073-1.382 3.173-2.95 6.247-4.514 9.334l-1.046 2.08q-2.165 4.304-4.336 8.602c-4.148 8.222-8.215 16.45-11.93 24.88h-2l-.312 2.063c-.835 3.566-2.183 6.6-3.688 9.937h-2l-.48 1.652c-1.836 5.932-4.38 11.01-7.52 16.348-2.999 5.239-5.688 10.413-8 16-1.65 3.674-3.324 7.337-5 11h-2l-.586 1.793c-1.358 4.122-2.735 8.202-4.414 12.207h-2l-.66 2.875c-1.463 5.114-4.15 9.534-6.777 14.125-3.17 5.582-6.135 11.056-8.563 17a1055 1055 0 0 1-3.187 6.938l-1.606 3.464L463 637h-2l-.25 1.938c-1.045 4.267-2.89 8.093-4.75 12.062h-2l-.34 2.137c-.723 3.137-1.855 5.764-3.223 8.676l-1.378 2.957L448 667h-2l-.25 1.938c-1.045 4.267-2.89 8.093-4.75 12.062h-2l-.621 2.117-.817 2.758-.808 2.742C436 691 436 691 435 693h-2l-.586 1.793c-1.358 4.122-2.735 8.202-4.414 12.207h-2l-.586 1.793c-1.358 4.122-2.735 8.202-4.414 12.207h-2l-.516 1.723c-1.383 4.409-2.915 8.31-5.324 12.285-2.636 4.526-4.84 9.3-7.16 13.992l-3.375 6.75-1.523 3.047L400 761c-2.327-.194-2.327-.194-5-1-1.51-2.107-1.51-2.107-2.762-4.898l-1.437-3.116-1.488-3.361q-1.58-3.436-3.168-6.867l-1.592-3.46c-2.562-5.441-5.392-10.73-8.255-16.018C369 708.707 369 708.707 369 704h-2q-1.259-2.653-2.5-5.312l-1.406-2.989C362 693 362 693 362 690h-2l-1.102-2.64c-3.02-7.158-6.202-14.137-9.796-21.032C348 664 348 664 348 662h-2l-1.426-3.36q-.942-2.195-1.887-4.39l-.935-2.21c-1.613-3.735-3.272-6.802-5.752-10.04a91 91 0 0 1-2.187-5.625l-1.043-2.914C332 631 332 631 332 629h-2q-1.259-2.653-2.5-5.312l-1.406-2.989C325 618 325 618 325 615h-2c-2.459-5.263-4.562-10.367-6-16h-2l-1.207-2.922-1.606-3.828-.79-1.922c-1.471-3.486-3.086-6.352-5.397-9.328a62 62 0 0 1-1.562-4.062c-1.962-5.098-4.423-9.822-7-14.625a603 603 0 0 1-11.5-22.688l-1.446-2.971-1.34-2.802-1.187-2.475c-.995-2.451-1.532-4.772-1.965-7.377h-2l-1.102-2.64A345 345 0 0 0 266 498a355 355 0 0 1-5.687-11.75l-1.325-2.86C258 481 258 481 258 479h-2a1638 1638 0 0 1-2.5-5.875l-1.406-3.305C251 467 251 467 251 465h-2l-1.54-3.48q-1.042-2.355-2.085-4.707l-1.092-2.468a656 656 0 0 0-8.252-17.841C235 434 235 434 235 431h-2c-12-21.845-12-21.845-12-27h-2l-.64-1.585c-5.276-13.096-5.276-13.096-12.114-25.419-3.1-4.965-4.755-10.375-6.246-15.996h-2q-1.506-3.435-3-6.875l-.867-1.973C192 347.227 192 347.227 192 345h-2q-1.506-3.435-3-6.875l-.867-1.973C184 331.227 184 331.227 184 329h-2a1151 1151 0 0 1-2-4.875l-1.125-2.742C178 319 178 319 178 317h-2l-.812-2.062c-2.832-7.006-6-13.727-9.508-20.417-1.8-3.49-3.168-6.612-3.68-10.521h-2a1638 1638 0 0 1-2.5-5.875l-1.406-3.305C155 272 155 272 155 270h-2l-1.18-2.832c-4.349-10.27-9.369-20.071-14.62-29.904-4.636-8.749-8.926-17.669-13.169-26.612l-1.406-2.964-1.402-2.957a479 479 0 0 0-10.875-21.353C103 169.713 103 169.713 103 165h-2l-1-6h74c7 13 7 13 9 18a129 129 0 0 0 2.031 3.906l1.194 2.224 1.275 2.37a596 596 0 0 1 11.063 21.875l1.3 2.682 1.203 2.529 1.061 2.22c.947 2.38 1.443 4.674 1.873 7.194h2q1.256 2.934 2.5 5.875l1.406 3.305C211 234 211 234 211 236h2q1.256 2.934 2.5 5.875l1.406 3.305C218 248 218 248 218 250h2q1.506 3.435 3 6.875l.867 1.973C226 263.773 226 263.773 226 266h2q1.506 3.435 3 6.875l.867 1.973C234 279.773 234 279.773 234 282h2q1.005 2.435 2 4.875l1.125 2.742C240 292 240 292 240 294h2l.953 2.344c2.47 6.013 5.045 11.891 8.047 17.656a884 884 0 0 1 2.25 4.375l1.016 1.96C255 322 255 322 255 324h2l.61 1.636a1715 1715 0 0 0 2.765 7.301l.96 2.577.938 2.45.857 2.27c.741 1.954.741 1.954 2.87 2.766 1.31 3.034 2.47 6.09 3.613 9.19 1.67 4.38 3.756 7.902 6.387 11.81 1.682 3.204 3.218 6.472 4.75 9.75l1.246 2.613C285 382.74 285 382.74 285 385h2q1.256 2.935 2.5 5.875l1.406 3.305C292 397 292 397 292 399h2q1.259 2.903 2.5 5.813l1.406 3.269C299 411 299 411 299 414h2l1.398 3.27c3.861 8.914 8.008 17.572 12.607 26.128 4.088 7.655 7.8 15.474 11.518 23.314 3.534 7.418 7.279 14.69 11.165 21.93 2.768 5.199 5.166 10.407 7.277 15.913.985 2.487.985 2.487 2.453 4.795 1.467 2.457 2.719 4.91 3.93 7.502l1.319 2.8c.46.98.92 1.962 1.396 2.973 3.532 7.464 7.165 14.845 11.062 22.125a485 485 0 0 1 9.813 19.375l1.107 2.296c2.399 5.079 4.293 10.215 5.955 15.579h2q1.256 2.934 2.5 5.875l1.406 3.305C389 594 389 594 389 596h2q1.255 3.185 2.5 6.375l1.406 3.586C396 609 396 609 396 611l4 1 .621-2.117.817-2.758.808-2.742C403 602 403 602 404 600h2l.75-2.437c1.51-4.306 3.352-8.417 5.25-12.563h2c.182-.592.364-1.183.55-1.793 1.416-4.45 2.923-8.252 5.45-12.207q1.021-2.491 2-5c2.7-5.85 2.7-5.85 5-7 .687-1.515 1.295-3.066 1.875-4.625 3.052-7.615 6.904-14.778 10.76-22.012 3.024-5.7 5.846-11.422 8.365-17.363h2l.586-1.828.789-2.422.773-2.39c.804-2.226 1.75-4.27 2.852-6.36h2l.438-2.25c.562-2.75.562-2.75 1.296-4.5.412-3.485-1.308-6.023-2.921-9q-.93-1.774-1.856-3.547l-.97-1.826c-1.366-2.599-2.673-5.226-3.98-7.855q-1.495-2.999-3.007-5.987C436 447.2 436 447.2 436 443h-2c-2.342-5.242-4.252-10.533-6-16h-2q-1.259-2.903-2.5-5.812l-1.406-3.27C421 415 421 415 421 412h-2a3051 3051 0 0 1-5.375-11.062l-1.54-3.147c-2.511-5.206-4.758-10.156-6.085-15.791h-2l-.812-2.062c-2.857-7.066-6.06-13.843-9.596-20.592C391 354.316 391 354.316 391 351h-2l-1.32-3.078c-3.318-7.685-6.74-15.24-10.614-22.664C376 323 376 323 376 321h-2l-1.18-2.832a279 279 0 0 0-12.53-25.783c-2.049-3.773-3.82-7.042-4.29-11.385h-2l-1.125-2.75c-1.454-3.403-3.081-6.697-4.75-10C340 252.122 340 252.122 340 249h-2l-.594-1.625c-2.935-7.693-6.612-14.95-10.342-22.278-2.036-4.011-4.038-8.04-6.045-12.065a1616 1616 0 0 0-5.3-10.524l-1.125-2.223q-1.074-2.12-2.156-4.234C310 191.225 310 191.225 310 189h-2l-1.355-3.148a5186 5186 0 0 0-2.79-6.435c-2.146-4.91-4.447-9.692-7.007-14.401C296 163 296 163 296 159h68c12 24 12 24 13.973 27.957a893 893 0 0 0 4.273 8.43l1.111 2.181a624 624 0 0 0 2.118 4.118c1.735 3.418 3.008 6.504 3.525 10.314h2l40 80 1 1.998 2.007 4.017q2.433 4.875 4.888 9.739c4.483 8.893 8.808 17.856 13.084 26.85a713 713 0 0 0 9.876 19.947C463 357 463 357 463 359h2l.96 2.395c3.383 8.175 7.225 15.985 11.436 23.766 2.444 4.537 4.675 9.099 6.699 13.84.885 1.955 1.879 3.774 2.967 5.624C489.822 409.43 492 413.339 492 419h3l.25-2.437c.952-4.522 2.766-8.41 4.75-12.563h2l.25-1.937c1.045-4.268 2.89-8.094 4.75-12.063h2l1.176-3.809c1.881-5.644 4.406-10.913 7.012-16.253l1.404-2.913Q520.289 363.51 522 360h2l.586-2.047.789-2.703.773-2.672c.773-2.339 1.688-4.412 2.852-6.578h2l.48-1.652c1.265-4.087 2.654-7.783 4.832-11.473 3.669-6.274 6.093-13.107 8.688-19.875h2l1-3.5c2.48-7.524 6.38-14.477 10-21.5l1-2h2l.25-1.937c1.045-4.268 2.89-8.094 4.75-12.063h2l.25-1.937c1.95-7.965 6.321-15.293 10.02-22.566 1.422-2.808 2.733-5.506 3.73-8.497h2l1-3.5c2.272-6.837 5.704-13.136 8.988-19.528 1.478-2.879 2.934-5.768 4.387-8.66l1.398-2.761c1.275-2.554 1.275-2.554 2.266-5.32C603 197 603 197 605 196c1.12-2.51 2.147-4.997 3.125-7.562l.84-2.155q1.024-2.638 2.035-5.283h2l1.063-3.625c2.411-6.69 5.756-13.014 8.937-19.375"/></svg>