<?xml version="1.0" encoding="UTF-8"?>
<svg version="1.1" xmlns="http://www.w3.org/2000/svg" width="1024" height="1024">
<path d="M0 0 C3.77210075 0.00677612 7.54416149 -0.00398919 11.3162534 -0.01239584 C17.91191502 -0.02471133 24.50750545 -0.02599744 31.10317466 -0.01984541 C40.91168991 -0.01072128 50.72013979 -0.01881284 60.52865005 -0.03013665 C78.05199324 -0.0497692 95.57530681 -0.0521575 113.09865838 -0.04694145 C128.43643213 -0.04237841 143.77419417 -0.04299075 159.11196754 -0.04878179 C161.17199367 -0.04953867 163.23201981 -0.05029465 165.29204594 -0.05104974 C168.39659968 -0.05219498 171.50115341 -0.05334486 174.60570714 -0.05450898 C203.45672393 -0.06520889 232.30773682 -0.0699445 261.1587548 -0.06203882 C262.78896647 -0.06159306 262.78896647 -0.06159306 264.4521117 -0.0611383 C273.27687426 -0.05868954 282.10163676 -0.05607786 290.92639927 -0.05345416 C325.34161404 -0.04335349 359.75678002 -0.05170581 394.17198798 -0.07494871 C432.87009935 -0.10104208 471.56818135 -0.11386366 510.26630184 -0.10676096 C514.3954601 -0.10604494 518.52461836 -0.10537055 522.65377662 -0.10472052 C523.67042136 -0.10455071 524.6870661 -0.1043809 525.73451826 -0.10420594 C541.05636534 -0.10190652 556.37818507 -0.1098629 571.70002601 -0.12301199 C589.13271135 -0.13794624 606.56533277 -0.13873563 623.99801678 -0.12094108 C633.74272857 -0.11140255 643.4872911 -0.1127627 653.23199281 -0.13017577 C659.75499218 -0.14071184 666.27787856 -0.13649983 672.80086691 -0.12069573 C676.5082238 -0.11211428 680.21528958 -0.10951376 683.92263085 -0.12496505 C704.62030184 -0.20530203 724.51067086 1.09750428 744.21300361 7.95410402 C745.1970417 8.29071047 746.18107978 8.62731691 747.1949372 8.97412356 C787.63082029 23.38633585 819.43868286 53.92702643 838.05284736 92.25488527 C841.40022029 99.40322181 844.06499276 106.73023956 846.40050361 114.26660402 C846.63471015 115.0074927 846.8689167 115.74838137 847.11022041 116.51172121 C852.34140255 134.25535084 852.58963785 151.91451816 852.53590627 170.26590586 C852.52821897 174.04155853 852.53810612 177.81717522 852.54563627 181.59282263 C852.55641964 188.19460793 852.55617467 194.79631949 852.54849479 201.39810808 C852.53710544 211.215509 852.54297023 221.03284819 852.55211971 230.85024874 C852.56788718 248.38831682 852.56655963 265.92635205 852.55788297 283.46442323 C852.5503273 298.81255968 852.5483704 314.16068411 852.55195091 329.50882204 C852.55229464 331.03773359 852.55229464 331.03773359 852.55264532 332.59753224 C852.55357938 336.73541336 852.55453458 340.87329448 852.55552461 345.01117559 C852.56469538 383.80372884 852.5563911 422.59626119 852.54023392 461.3888112 C852.5259978 495.83083406 852.52727171 530.27282364 852.54161689 564.71484621 C852.55769131 603.43782141 852.56404491 642.16077816 852.5547801 680.88375624 C852.55381799 685.01396616 852.55287947 689.14417608 852.55195091 693.27438601 C852.55159506 694.79975766 852.55159506 694.79975766 852.55123202 696.3559449 C852.54782395 711.69198389 852.55180232 727.02800951 852.55938957 742.36404665 C852.56797634 759.80708621 852.56580365 777.25008786 852.54954733 794.6931227 C852.54075568 804.44753771 852.54013851 814.20187057 852.55148586 823.9562834 C852.5582367 830.48064553 852.55398372 837.00494212 852.54097155 843.52929458 C852.53386949 847.24067372 852.53132286 850.95189025 852.5421895 854.66326399 C852.59235492 873.14428072 852.01432444 890.75785053 846.40050361 908.51660402 C846.14373847 909.34514895 845.88697334 910.17369387 845.62242744 911.02734621 C839.65900764 929.71571743 830.54067668 947.16201629 818.15050361 962.39160402 C817.69804267 962.95089602 817.24558173 963.51018801 816.77940986 964.08642824 C790.7190273 996.08808365 753.63778804 1017.11303451 712.44678137 1022.17524191 C708.31578625 1022.56447655 704.1878261 1022.54539399 700.04140327 1022.54982241 C699.04685874 1022.55476074 698.05231421 1022.55969907 697.02763197 1022.56478705 C693.69635769 1022.58012429 690.36510284 1022.58852188 687.03380439 1022.59692629 C684.62584441 1022.606518 682.21788604 1022.61652336 679.80992934 1022.6269079 C673.90234372 1022.651227 667.99475299 1022.67096472 662.08714474 1022.6886465 C655.06244188 1022.70987892 648.03776194 1022.73647483 641.01307777 1022.76308763 C625.76126505 1022.82057712 610.509431 1022.86979015 595.25758309 1022.91686172 C594.46932106 1022.91929488 593.68105904 1022.92172805 592.86891029 1022.92423494 C592.07886691 1022.92667241 591.28882354 1022.92910987 590.47483945 1022.93162119 C582.46935996 1022.95641825 574.46388593 1022.9828117 566.45841189 1023.00930141 C474.08686396 1023.31463598 381.71488418 1023.56594591 224.71978805 1023.42606695 C212.3216547 1023.40552394 199.92352378 1023.38702066 187.52538154 1023.37268313 C157.81034427 1023.33801055 128.09542356 1023.28947683 98.38048217 1023.2044874 C95.74931831 1023.19699649 93.11815439 1023.18952406 90.48699043 1023.18207033 C89.19297769 1023.17840216 87.89896496 1023.17473399 86.56573972 1023.17095466 C77.57021416 1023.14641686 68.5747055 1023.13160183 59.57915351 1023.12115725 C48.71575516 1023.10838907 37.85249934 1023.08169735 26.9891828 1023.03719159 C21.45307031 1023.01486369 15.9171302 1022.99865257 10.38096854 1022.99968584 C5.28401545 1023.0004331 0.1874608 1022.98241527 -4.90938881 1022.95042832 C-6.73851207 1022.94205585 -8.56768059 1022.9401029 -10.39681413 1022.94580348 C-27.9030584 1022.99314137 -45.31785779 1020.60402256 -61.91199639 1014.82910402 C-62.89603448 1014.49249758 -63.88007256 1014.15589113 -64.89392998 1013.80908449 C-105.32981307 999.3968722 -137.13767564 968.85618162 -155.75184014 930.52832277 C-159.09921307 923.37998624 -161.76398554 916.05296849 -164.09949639 908.51660402 C-164.33370293 907.77571535 -164.56790948 907.03482668 -164.80921319 906.27148684 C-170.04039533 888.5278572 -170.28863063 870.86868989 -170.23489905 852.51730219 C-170.22721175 848.74164951 -170.2370989 844.96603283 -170.24462905 841.19038542 C-170.25541242 834.58860012 -170.25516746 827.98688856 -170.24748757 821.38509997 C-170.23609822 811.56769905 -170.24196301 801.75035986 -170.25111249 791.93295931 C-170.26687996 774.39489122 -170.26555242 756.856856 -170.25687576 739.31878482 C-170.24932009 723.97064837 -170.24736318 708.62252394 -170.25094369 693.27438601 C-170.25117284 692.25511164 -170.251402 691.23583728 -170.2516381 690.18567581 C-170.25257216 686.04779469 -170.25352736 681.90991357 -170.25451739 677.77203245 C-170.26368816 638.97947921 -170.25538388 600.18694686 -170.2392267 561.39439684 C-170.22499058 526.95237399 -170.22626449 492.51038441 -170.24060967 458.06836184 C-170.25668409 419.34538664 -170.26303769 380.62242988 -170.25377288 341.89945181 C-170.25281077 337.76924189 -170.25187225 333.63903197 -170.25094369 329.50882204 C-170.25070645 328.49190761 -170.25046922 327.47499317 -170.2502248 326.42726315 C-170.24681673 311.09122416 -170.2507951 295.75519853 -170.25838235 280.4191614 C-170.26696912 262.97612184 -170.26479643 245.53312019 -170.24854011 228.09008535 C-170.23974846 218.33567034 -170.23913129 208.58133748 -170.25047864 198.82692465 C-170.25722949 192.30256251 -170.2529765 185.77826593 -170.23996433 179.25391347 C-170.23286227 175.54253433 -170.23031564 171.8313178 -170.24118228 168.11994405 C-170.2913477 149.63892733 -169.71331723 132.02535751 -164.09949639 114.26660402 C-163.84273125 113.4380591 -163.58596612 112.60951418 -163.32142022 111.75586184 C-157.35846344 93.06894165 -148.24116945 75.61849188 -135.84949639 60.39160402 C-135.39171807 59.82699465 -134.93393975 59.26238527 -134.46228936 58.68066652 C-113.84708013 33.4268629 -87.07148895 15.77852694 -55.97449639 6.14160402 C-55.23360772 5.90739748 -54.49271905 5.67319094 -53.7293792 5.43188723 C-35.99508348 0.20345691 -18.34186523 -0.04928512 0 0 Z " fill="#0D1719" transform="translate(170.84949639067054,0.6083959760144353)"/>
<path d="M0 0 C98.67 0 197.34 0 299 0 C298.2504257 4.49744581 297.78857351 6.93190115 295.92578125 10.79296875 C295.50820557 11.66550293 295.09062988 12.53803711 294.66040039 13.43701172 C294.21559326 14.34467285 293.77078613 15.25233398 293.3125 16.1875 C292.86060303 17.12352051 292.40870605 18.05954102 291.94311523 19.02392578 C289.17231988 24.72410253 286.28243187 30.3216378 283.171875 35.84375 C282.09593916 37.82347195 281.17598842 39.79557892 280.3125 41.875 C279 45 279 45 277.578125 47.34765625 C275.98523606 50.02481365 274.70024987 52.71636472 273.4375 55.5625 C272.0206991 58.74478489 270.58420818 61.89728813 269 65 C268.34 65 267.68 65 267 65 C266.88229248 65.71841064 266.76458496 66.43682129 266.64331055 67.17700195 C265.97733419 70.09946289 264.99756338 72.46659431 263.70703125 75.16796875 C263.24103516 76.14443359 262.77503906 77.12089844 262.29492188 78.12695312 C261.80572266 79.13693359 261.31652344 80.14691406 260.8125 81.1875 C260.10770508 82.6734668 260.10770508 82.6734668 259.38867188 84.18945312 C256.6198887 89.94988197 253.63576955 95.44241641 250.20581055 100.8371582 C249.04671943 102.91620016 248.44843973 104.67452442 248 107 C247.34 107 246.68 107 246 107 C245.896875 107.721875 245.79375 108.44375 245.6875 109.1875 C244.92875343 112.29146324 243.677335 114.29045885 242 117 C241.28229591 118.67946895 240.56554382 120.35936003 239.85644531 122.04248047 C238.39319638 125.38693027 236.71851403 128.62288448 235.0625 131.875 C232.54331801 136.85799108 230.1406775 141.8502252 227.93359375 146.98046875 C226.51822317 150.04216997 224.84307858 152.9450241 223.1484375 155.859375 C221.9014384 158.18371346 220.97558882 160.55002508 220 163 C218.51292375 166.038808 216.97502221 169.04895647 215.4375 172.0625 C214.15948168 174.67410265 213.03783122 177.28567219 212 180 C211.34 180 210.68 180 210 180 C209.80664062 180.59167969 209.61328125 181.18335938 209.4140625 181.79296875 C208.05585281 185.9146645 206.67949415 189.9950524 205 194 C204.34 194 203.68 194 203 194 C202.62681641 195.23943359 202.62681641 195.23943359 202.24609375 196.50390625 C200.8193655 200.50679586 199.00676133 204.16670326 197.0625 207.9375 C194.51921346 212.89667283 192.19403316 217.87301058 190 223 C188.64150559 225.83151992 187.23027455 228.63528013 185.8125 231.4375 C185.44447266 232.16904297 185.07644531 232.90058594 184.69726562 233.65429688 C183.80002361 235.43712841 182.90027407 237.21869763 182 239 C181.34 239 180.68 239 180 239 C179.88785156 239.70511719 179.77570312 240.41023437 179.66015625 241.13671875 C178.93685092 244.27389512 177.80542309 246.90127906 176.4375 249.8125 C175.98246094 250.78832031 175.52742187 251.76414062 175.05859375 252.76953125 C174.70925781 253.50558594 174.35992188 254.24164063 174 255 C173.34 255 172.68 255 172 255 C171.9175 255.639375 171.835 256.27875 171.75 256.9375 C170.70479628 261.20541517 168.85908174 265.03107667 167 269 C166.34 269 165.68 269 165 269 C164.9175 269.680625 164.835 270.36125 164.75 271.0625 C163.96118477 274.15202633 162.62693614 276.50156225 160.98828125 279.21875 C159.61194571 281.69941801 158.79444279 284.28565379 158 287 C157.34 287 156.68 287 156 287 C155.82319702 288.08027466 155.82319702 288.08027466 155.64282227 289.18237305 C154.98129407 292.08199206 154.01002381 294.40969771 152.71484375 297.08203125 C152.26689453 298.01337891 151.81894531 298.94472656 151.35742188 299.90429688 C150.88884766 300.86400391 150.42027344 301.82371094 149.9375 302.8125 C149.46505859 303.79154297 148.99261719 304.77058594 148.50585938 305.77929688 C147.34229316 308.18870167 146.17353704 310.59544007 145 313 C144.34 313 143.68 313 143 313 C142.80664062 313.59167969 142.61328125 314.18335938 142.4140625 314.79296875 C141.05585281 318.9146645 139.67949415 322.9950524 138 327 C137.34 327 136.68 327 136 327 C135.67 328.155 135.34 329.31 135 330.5 C133.18819329 335.98768379 130.5959888 341.02567343 127.95703125 346.15039062 C125.78629433 350.37126797 123.82180446 354.61628301 122 359 C121.34 359 120.68 359 120 359 C119.79503906 359.61488281 119.59007812 360.22976563 119.37890625 360.86328125 C118.25260417 364.2421875 117.12630208 367.62109375 116 371 C115.34 371 114.68 371 114 371 C113.75672974 371.81682251 113.75672974 371.81682251 113.50854492 372.65014648 C111.67672994 378.49557995 109.24838326 383.69860754 106.3125 389.0625 C105.41661505 390.7310447 104.52210485 392.40032821 103.62890625 394.0703125 C103.18562988 394.89692383 102.74235352 395.72353516 102.28564453 396.57519531 C99.38078766 402.05393409 96.65348271 407.62296731 93.90380859 413.18066406 C92.00018292 417.01259776 90.06133758 420.82705791 88.12890625 424.64453125 C86.90987829 427.06228254 86.90987829 427.06228254 86 430 C85.34 430 84.68 430 84 430 C83.67 431.155 83.34 432.31 83 433.5 C80.74561728 440.26314816 77.35811426 446.50494378 74.11132812 452.83007812 C72.24160878 456.48079551 70.40167585 460.14632828 68.5625 463.8125 C68.22065674 464.48804932 67.87881348 465.16359863 67.52661133 465.85961914 C66.17366123 468.55072735 64.95409612 471.13771164 64 474 C63.34 474 62.68 474 62 474 C61.67 475.155 61.34 476.31 61 477.5 C57.3370024 488.47179562 51.23639747 498.74483815 45.70239258 508.86376953 C43.55023364 512.83071289 41.72410519 516.83562284 40 521 C39.34 521 38.68 521 38 521 C37.8453125 522.0209375 37.8453125 522.0209375 37.6875 523.0625 C36.85274981 526.62915989 35.50527246 529.66222194 34 533 C33.34 533 32.68 533 32 533 C31.67 534.155 31.34 535.31 31 536.5 C29.17087339 542.04923435 26.53572528 547.14412527 23.86914062 552.32617188 C22.06611657 555.83300234 20.38407841 559.29956238 19 563 C18.34 563 17.68 563 17 563 C16.85304688 563.60585938 16.70609375 564.21171875 16.5546875 564.8359375 C14.98148399 570.71284715 12.75390233 575.34268462 9.49609375 580.4609375 C7.15297788 584.4375049 5.56629363 588.6696588 4 593 C3.34 593 2.68 593 2 593 C1.85304688 593.60585938 1.70609375 594.21171875 1.5546875 594.8359375 C-0.03172062 600.76217475 -2.28763274 605.49116051 -5.5703125 610.66015625 C-7.41116465 613.67291701 -8.71542408 616.71719487 -10 620 C-10.66 620 -11.32 620 -12 620 C-12.11214844 620.70511719 -12.22429687 621.41023437 -12.33984375 622.13671875 C-13.06314908 625.27389512 -14.19457691 627.90127906 -15.5625 630.8125 C-16.01753906 631.78832031 -16.47257812 632.76414062 -16.94140625 633.76953125 C-17.29074219 634.50558594 -17.64007812 635.24164062 -18 636 C-18.66 636 -19.32 636 -20 636 C-20.37125 637.258125 -20.7425 638.51625 -21.125 639.8125 C-22.72234778 644.63482482 -25.00923122 648.85874672 -27.50390625 653.26953125 C-29.5885804 657.07419765 -31.32203512 661.00249543 -33 665 C-33.66 665 -34.32 665 -35 665 C-35.0825 665.639375 -35.165 666.27875 -35.25 666.9375 C-36.29520372 671.20541517 -38.14091826 675.03107667 -40 679 C-40.66 679 -41.32 679 -42 679 C-42.2475 679.804375 -42.495 680.60875 -42.75 681.4375 C-44.26078647 685.74324143 -46.10188856 689.85364007 -48 694 C-48.66 694 -49.32 694 -50 694 C-50.103125 694.721875 -50.20625 695.44375 -50.3125 696.1875 C-51.07124657 699.29146324 -52.322665 701.29045885 -54 704 C-54.71432378 705.62346313 -55.42612804 707.2483088 -56.10546875 708.88671875 C-57.97357788 713.30002459 -60.00633917 717.64231447 -62 722 C-62.66 722 -63.32 722 -64 722 C-64.18175781 722.56847656 -64.36351562 723.13695312 -64.55078125 723.72265625 C-66.14084634 728.60701003 -67.90459778 733.31029027 -70 738 C-70.66 738 -71.32 738 -72 738 C-72.17015625 738.56847656 -72.3403125 739.13695312 -72.515625 739.72265625 C-73.91235193 744.172866 -75.46927862 748.06749509 -77.91015625 752.07421875 C-79.21629953 754.3822067 -80.25196983 756.75697347 -81.3125 759.1875 C-83.65536436 764.46075818 -86.48267497 769.33296642 -89.43359375 774.28515625 C-91.27081129 777.46936121 -92.6464746 780.58395971 -94 784 C-94.72319753 785.64846496 -95.4526137 787.29421259 -96.1875 788.9375 C-96.53167969 789.70964844 -96.87585938 790.48179687 -97.23046875 791.27734375 C-97.48441406 791.84582031 -97.73835938 792.41429687 -98 793 C-98.66 793 -99.32 793 -100 793 C-100.14695312 793.53367187 -100.29390625 794.06734375 -100.4453125 794.6171875 C-102.37939129 801.04188599 -105.37316973 806.37782622 -109 812 C-110.765625 811.9453125 -110.765625 811.9453125 -113 811 C-114.43825966 808.62505862 -115.60669662 806.38712873 -116.75 803.875 C-117.448588 802.40793223 -118.14915815 800.94180691 -118.8515625 799.4765625 C-119.20637695 798.72922852 -119.56119141 797.98189453 -119.92675781 797.21191406 C-121.56341276 793.83882631 -123.33860848 790.5455399 -125.125 787.25 C-128.54514526 780.89442207 -131.80434852 774.47099502 -135 768 C-136.00275211 765.97293122 -137.00696974 763.94661989 -138.01391602 761.92163086 C-138.70817986 760.52518259 -139.40010935 759.12757113 -140.08959961 757.72875977 C-142.24880155 753.38148254 -144.56679385 749.21727684 -147.28515625 745.1875 C-149.05911755 739.75898456 -147.15552095 734.93564952 -144.70703125 730.08203125 C-143.75386241 728.31915818 -142.78855034 726.56280798 -141.8125 724.8125 C-140.81006129 722.96225668 -139.81005479 721.11069354 -138.8125 719.2578125 C-138.32910156 718.36352539 -137.84570312 717.46923828 -137.34765625 716.54785156 C-134.66396893 711.47412677 -132.30987728 706.2532652 -130 701 C-129.34 701 -128.68 701 -128 701 C-127.67 699.845 -127.34 698.69 -127 697.5 C-123.75496022 687.7494281 -118.68844028 678.3925228 -113.06640625 669.8203125 C-111.42773872 667.02317305 -110.3892375 664.03406028 -109.24609375 661.0078125 C-106.54969304 654.49925906 -103.204868 648.2697175 -100 642 C-99.34 642 -98.68 642 -98 642 C-97.79503906 641.30132813 -97.59007812 640.60265625 -97.37890625 639.8828125 C-97.10949219 638.97273437 -96.84007812 638.06265625 -96.5625 637.125 C-96.29566406 636.22007812 -96.02882813 635.31515625 -95.75390625 634.3828125 C-95 632 -95 632 -94 630 C-93.34 630 -92.68 630 -92 630 C-91.67 628.845 -91.34 627.69 -91 626.5 C-88.74460318 619.73380955 -85.35515657 613.48914163 -82.10693359 607.16113281 C-80.25980015 603.55486346 -78.44188254 599.93407689 -76.625 596.3125 C-76.12480347 595.32431274 -76.12480347 595.32431274 -75.61450195 594.31616211 C-73.91206078 590.93008402 -72.34214001 587.54514761 -71 584 C-70.34 584 -69.68 584 -69 584 C-68.85304688 583.46632813 -68.70609375 582.93265625 -68.5546875 582.3828125 C-66.89501379 576.86964351 -64.54081763 572.40955738 -61.48046875 567.55078125 C-59.5603529 564.24250777 -58.27469232 560.81474053 -56.93359375 557.2421875 C-55.67686147 554.22392671 -53.82316077 551.70533534 -52 549 C-51.18614837 546.99667292 -50.47367471 544.98689446 -49.80859375 542.9296875 C-49 541 -49 541 -47.51953125 539.03125 C-45.93970076 536.91939433 -45.14411407 535.09646625 -44.25 532.625 C-41.65170553 525.84507537 -38.3099911 519.4526231 -35 513 C-34.34 513 -33.68 513 -33 513 C-32.81824219 512.43152344 -32.63648438 511.86304688 -32.44921875 511.27734375 C-30.85915366 506.39298997 -29.09540222 501.68970973 -27 497 C-26.34 497 -25.68 497 -25 497 C-24.67 495.845 -24.34 494.69 -24 493.5 C-21.7458327 486.7374981 -18.358305 480.49837021 -15.11132812 474.17431641 C-13.23553328 470.50431884 -11.40117731 466.81369152 -9.5625 463.125 C-8.89732355 461.79417678 -8.2319739 460.46344012 -7.56640625 459.1328125 C-7.04949219 458.09898437 -6.53257812 457.06515625 -6 456 C-5.67 455.34 -5.34 454.68 -5 454 C-4.34 454 -3.68 454 -3 454 C-2.83673218 452.94679565 -2.83673218 452.94679565 -2.67016602 451.87231445 C-1.91826785 448.64969809 -0.72637977 446.01730585 0.72265625 443.04296875 C1.26083984 441.93115234 1.79902344 440.81933594 2.35351562 439.67382812 C2.91748047 438.52333984 3.48144531 437.37285156 4.0625 436.1875 C4.63033203 435.01767578 5.19816406 433.84785156 5.78320312 432.64257812 C7.18370596 429.75918993 8.58946134 426.87848849 10 424 C10.66 424 11.32 424 12 424 C12.14501953 422.97132813 12.14501953 422.97132813 12.29296875 421.921875 C13.14354653 418.40678008 14.64791729 415.43108402 16.3125 412.25 C19.96466023 405.12261544 23.43855759 397.92113451 26.875 390.6875 C30.83143643 382.38642507 34.93933261 374.20212188 39.28295898 366.09790039 C43.02122572 359.07514496 46.41911727 351.90603747 49.8112793 344.71118164 C53.00078196 337.98518461 56.37677083 331.38264871 59.875 324.8125 C63.67358163 317.67655515 67.15918374 310.58074174 70 303 C70.66 303 71.32 303 72 303 C72.0928125 302.32195312 72.185625 301.64390625 72.28125 300.9453125 C73.17192119 297.29549686 74.7723823 294.18187129 76.5 290.875 C79.77959064 284.46765161 82.93157668 278.01119428 86 271.5 C86.39767578 270.65679199 86.79535156 269.81358398 87.20507812 268.94482422 C88.13815314 266.96389115 89.06929856 264.98204935 90 263 C90.66 263 91.32 263 92 263 C92.17015625 262.45472656 92.3403125 261.90945313 92.515625 261.34765625 C94.32540814 255.71615022 96.50345378 250.36060431 99 245 C99.66 245 100.32 245 101 245 C101.20496094 244.38511719 101.40992188 243.77023437 101.62109375 243.13671875 C102.74739583 239.7578125 103.87369792 236.37890625 105 233 C105.66 233 106.32 233 107 233 C107.39058594 231.73929688 107.78117188 230.47859375 108.18359375 229.1796875 C110.04406052 223.61024811 112.49831027 218.40004555 115.0625 213.125 C115.54565674 212.12267334 116.02881348 211.12034668 116.52661133 210.08764648 C120.40076345 202.10617275 124.48769129 194.25034076 128.66015625 186.421875 C131.90926725 180.31498386 134.97700194 174.11992285 138.04541016 167.92089844 C138.98533925 166.02950147 139.93429763 164.14294609 140.88671875 162.2578125 C144.33346861 155.42592476 147.69482288 148.56137694 150.97241211 141.64648438 C155.67113433 131.73377537 160.56731164 121.96937026 165.7265625 112.2890625 C168.94098678 106.25365305 171.96671706 100.12819014 175 94 C176.43507627 91.12378661 177.87382685 88.24941555 179.3125 85.375 C179.97532363 84.04951078 180.63808794 82.72399189 181.30078125 81.3984375 C182.53385417 78.93229167 183.76692708 76.46614583 185 74 C138.14 74 91.28 74 43 74 C41.515 78.455 41.515 78.455 40 83 C39.34 83 38.68 83 38 83 C37.80664062 83.67546875 37.61328125 84.3509375 37.4140625 85.046875 C37.02347656 86.38492188 37.02347656 86.38492188 36.625 87.75 C36.36976563 88.63171875 36.11453125 89.5134375 35.8515625 90.421875 C35.0790066 92.76080572 34.16374324 94.83442562 33 97 C32.34 97 31.68 97 31 97 C30.80664062 97.59167969 30.61328125 98.18335938 30.4140625 98.79296875 C29.05585281 102.9146645 27.67949415 106.9950524 26 111 C25.34 111 24.68 111 24 111 C23.81824219 111.65226562 23.63648438 112.30453125 23.44921875 112.9765625 C22.02533404 117.92730011 20.50592766 122.46546423 18 127 C17.34 127 16.68 127 16 127 C15.69255859 127.93972656 15.69255859 127.93972656 15.37890625 128.8984375 C14.97478516 130.12433594 14.97478516 130.12433594 14.5625 131.375 C14.29566406 132.18710937 14.02882813 132.99921875 13.75390625 133.8359375 C13 136 13 136 12 138 C11.34 138 10.68 138 10 138 C9.80664062 138.59167969 9.61328125 139.18335938 9.4140625 139.79296875 C8.05585281 143.9146645 6.67949415 147.9950524 5 152 C4.34 152 3.68 152 3 152 C2.88785156 152.53109375 2.77570312 153.0621875 2.66015625 153.609375 C1.83141323 156.61050358 0.65240018 159.38408163 -0.5625 162.25 C-1.01753906 163.32765625 -1.47257813 164.4053125 -1.94140625 165.515625 C-2.46541016 166.74539063 -2.46541016 166.74539063 -3 168 C-3.66 168 -4.32 168 -5 168 C-5.0825 168.639375 -5.165 169.27875 -5.25 169.9375 C-6.29520372 174.20541517 -8.14091826 178.03107667 -10 182 C-10.66 182 -11.32 182 -12 182 C-12.37125 183.2065625 -12.37125 183.2065625 -12.75 184.4375 C-15.36636339 191.89413566 -18.89171838 198.86246337 -22.625 205.8125 C-26.33496803 212.79177243 -29.96126124 219.8072908 -33.5 226.875 C-33.92104004 227.71264893 -34.34208008 228.55029785 -34.77587891 229.41333008 C-36.68040432 233.23134613 -38.43056168 237.03065825 -40 241 C-40.78789287 242.47177348 -41.60055682 243.930556 -42.4375 245.375 C-43.95428924 248.05142752 -45.24644389 250.58932235 -46.4375 253.4375 C-47.78317455 256.50563798 -49.25353344 259.15501884 -51 262 C-53.38738008 265.89860343 -55.29853478 269.74633695 -57 274 C-57.68113874 275.56528353 -58.36896054 277.12767132 -59.0625 278.6875 C-59.38347656 279.41324219 -59.70445312 280.13898438 -60.03515625 280.88671875 C-60.97722829 282.95012349 -61.97290733 284.97776865 -63 287 C-63.66 287 -64.32 287 -65 287 C-65.103125 287.721875 -65.20625 288.44375 -65.3125 289.1875 C-66.07124657 292.29146324 -67.322665 294.29045885 -69 297 C-69.474375 298.11375 -69.94875 299.2275 -70.4375 300.375 C-71.7636377 303.45163946 -73.19686927 306.18821981 -74.9375 309.03125 C-76.17585224 311.32584386 -77.16234129 313.70301848 -78.17431641 316.10400391 C-79.55590258 319.27650486 -81.12450473 322.35138772 -82.6875 325.4375 C-83.20534058 326.46750122 -83.20534058 326.46750122 -83.73364258 327.51831055 C-85.17606577 330.38716266 -86.62320346 333.25362656 -88.0703125 336.12011719 C-92.2175942 344.34171915 -96.28530503 352.57049986 -100 361 C-100.66 361 -101.32 361 -102 361 C-102.103125 361.680625 -102.20625 362.36125 -102.3125 363.0625 C-103.14725019 366.62915989 -104.49472754 369.66222194 -106 373 C-106.66 373 -107.32 373 -108 373 C-108.15855469 373.54527344 -108.31710937 374.09054687 -108.48046875 374.65234375 C-110.31572062 380.58395893 -112.86047179 385.66280204 -116 391 C-118.99866993 396.23885275 -121.68818785 401.41312064 -124 407 C-125.65015465 410.67421142 -127.32432772 414.33736454 -129 418 C-129.66 418 -130.32 418 -131 418 C-131.19335938 418.59167969 -131.38671875 419.18335938 -131.5859375 419.79296875 C-132.94414719 423.9146645 -134.32050585 427.9950524 -136 432 C-136.66 432 -137.32 432 -138 432 C-138.21785156 432.94875 -138.43570312 433.8975 -138.66015625 434.875 C-140.1225051 439.98871947 -142.80940935 444.40855088 -145.4375 449 C-148.60747564 454.58182307 -151.57188083 460.05602041 -154 466 C-155.05425032 468.3162726 -156.1165093 470.62892004 -157.1875 472.9375 C-157.71730469 474.08089844 -158.24710937 475.22429687 -158.79296875 476.40234375 C-159.39044922 477.68818359 -159.39044922 477.68818359 -160 479 C-160.66 479 -161.32 479 -162 479 C-162.0825 479.639375 -162.165 480.27875 -162.25 480.9375 C-163.29520372 485.20541517 -165.14091826 489.03107667 -167 493 C-167.66 493 -168.32 493 -169 493 C-169.11214844 493.70511719 -169.22429687 494.41023438 -169.33984375 495.13671875 C-170.06314908 498.27389512 -171.19457691 500.90127906 -172.5625 503.8125 C-173.01753906 504.78832031 -173.47257812 505.76414062 -173.94140625 506.76953125 C-174.29074219 507.50558594 -174.64007813 508.24164062 -175 509 C-175.66 509 -176.32 509 -177 509 C-177.0825 509.639375 -177.165 510.27875 -177.25 510.9375 C-178.29520372 515.20541517 -180.14091826 519.03107667 -182 523 C-182.66 523 -183.32 523 -184 523 C-184.20496094 523.69867187 -184.40992188 524.39734375 -184.62109375 525.1171875 C-184.89050781 526.02726563 -185.15992188 526.93734375 -185.4375 527.875 C-185.70433594 528.77992188 -185.97117187 529.68484375 -186.24609375 530.6171875 C-187 533 -187 533 -188 535 C-188.66 535 -189.32 535 -190 535 C-190.19335938 535.59167969 -190.38671875 536.18335938 -190.5859375 536.79296875 C-191.94414719 540.9146645 -193.32050585 544.9950524 -195 549 C-195.66 549 -196.32 549 -197 549 C-197.19335938 549.59167969 -197.38671875 550.18335938 -197.5859375 550.79296875 C-198.94414719 554.9146645 -200.32050585 558.9950524 -202 563 C-202.66 563 -203.32 563 -204 563 C-204.17015625 563.56847656 -204.3403125 564.13695312 -204.515625 564.72265625 C-205.89944766 569.13175079 -207.43140439 573.03342967 -209.83984375 577.0078125 C-212.47559376 581.53384786 -214.67921272 586.30723161 -217 591 C-218.12397809 593.25051067 -219.2489378 595.50053141 -220.375 597.75 C-220.87773437 598.75546875 -221.38046875 599.7609375 -221.8984375 600.796875 C-222.26195312 601.52390625 -222.62546875 602.2509375 -223 603 C-225.32739258 602.80615234 -225.32739258 602.80615234 -228 602 C-229.51049805 599.89306641 -229.51049805 599.89306641 -230.76171875 597.1015625 C-231.23609375 596.07353516 -231.71046875 595.04550781 -232.19921875 593.98632812 C-232.69035156 592.87708984 -233.18148438 591.76785156 -233.6875 590.625 C-234.74041324 588.33452083 -235.79643978 586.04547042 -236.85546875 583.7578125 C-237.38060059 582.61602539 -237.90573242 581.47423828 -238.44677734 580.29785156 C-241.00938016 574.85685206 -243.83945904 569.56743033 -246.7019043 564.27978516 C-254 550.70723086 -254 550.70723086 -254 546 C-254.66 546 -255.32 546 -256 546 C-256.84026396 544.23244474 -257.67198722 542.46082737 -258.5 540.6875 C-258.9640625 539.70136719 -259.428125 538.71523438 -259.90625 537.69921875 C-261 535 -261 535 -261 532 C-261.66 532 -262.32 532 -263 532 C-263.36351562 531.12859375 -263.72703125 530.2571875 -264.1015625 529.359375 C-267.122526 522.20201533 -270.30353523 515.22296321 -273.8984375 508.328125 C-275 506 -275 506 -275 504 C-275.66 504 -276.32 504 -277 504 C-277.47050781 502.89140625 -277.94101562 501.7828125 -278.42578125 500.640625 C-279.05440564 499.17696225 -279.68332756 497.71342725 -280.3125 496.25 C-280.62123047 495.52039063 -280.92996094 494.79078125 -281.24804688 494.0390625 C-282.86058907 490.30475425 -284.51960754 487.23829015 -287 484 C-287.79216412 482.15073392 -288.51994217 480.2728081 -289.1875 478.375 C-289.53167969 477.41335938 -289.87585938 476.45171875 -290.23046875 475.4609375 C-291 473 -291 473 -291 471 C-291.66 471 -292.32 471 -293 471 C-293.84026396 469.23244474 -294.67198722 467.46082737 -295.5 465.6875 C-295.9640625 464.70136719 -296.428125 463.71523438 -296.90625 462.69921875 C-298 460 -298 460 -298 457 C-298.66 457 -299.32 457 -300 457 C-302.45855991 451.73677223 -304.56176509 446.63308675 -306 441 C-306.66 441 -307.32 441 -308 441 C-308.39832031 440.03578125 -308.79664063 439.0715625 -309.20703125 438.078125 C-309.74189434 436.80196043 -310.27706696 435.52592555 -310.8125 434.25 C-311.07353516 433.61578125 -311.33457031 432.9815625 -311.60351562 432.328125 C-313.07423967 428.8419643 -314.68878388 425.97617494 -317 423 C-317.5702098 421.66587276 -318.08730575 420.30834833 -318.5625 418.9375 C-320.52404271 413.84046098 -322.98493563 409.11564624 -325.5625 404.3125 C-329.56383149 396.82816382 -333.3801894 389.27156989 -337.0625 381.625 C-337.53953369 380.64442627 -338.01656738 379.66385254 -338.50805664 378.65356445 C-339.17115845 377.26657349 -339.17115845 377.26657349 -339.84765625 375.8515625 C-340.23961182 375.03510254 -340.63156738 374.21864258 -341.03540039 373.37744141 C-342.03021654 370.92552553 -342.56659252 368.60507717 -343 366 C-343.66 366 -344.32 366 -345 366 C-345.36351562 365.12859375 -345.72703125 364.2571875 -346.1015625 363.359375 C-349.45511415 355.41403723 -353.06222041 347.67701567 -357 340 C-358.96406661 336.11257283 -360.86749617 332.20700532 -362.6875 328.25 C-363.12449219 327.30640625 -363.56148437 326.3628125 -364.01171875 325.390625 C-365 323 -365 323 -365 321 C-365.66 321 -366.32 321 -367 321 C-367.83764268 319.04350603 -368.66999059 317.08474444 -369.5 315.125 C-369.9640625 314.03445313 -370.428125 312.94390625 -370.90625 311.8203125 C-372 309 -372 309 -372 307 C-372.66 307 -373.32 307 -374 307 C-374.50789062 305.85144531 -375.01578125 304.70289063 -375.5390625 303.51953125 C-376.23424316 301.95046242 -376.9295656 300.38145639 -377.625 298.8125 C-377.98529297 297.99837646 -378.34558594 297.18425293 -378.71679688 296.34545898 C-381.37674493 290.35292557 -384.13052264 284.41436375 -386.96875 278.50390625 C-388 276 -388 276 -388 273 C-388.66 273 -389.32 273 -390 273 C-402 251.15533981 -402 251.15533981 -402 246 C-402.66 246 -403.32 246 -404 246 C-404.31638428 245.21520264 -404.31638428 245.21520264 -404.63916016 244.41455078 C-409.9159986 231.31915963 -409.9159986 231.31915963 -416.75390625 218.99609375 C-419.85364979 214.03067385 -421.50863749 208.62128945 -423 203 C-423.66 203 -424.32 203 -425 203 C-426.0044134 200.7101766 -427.00367612 198.4183401 -428 196.125 C-428.28617187 195.47402344 -428.57234375 194.82304687 -428.8671875 194.15234375 C-431 189.2265625 -431 189.2265625 -431 187 C-431.66 187 -432.32 187 -433 187 C-434.0044134 184.7101766 -435.00367612 182.4183401 -436 180.125 C-436.28617187 179.47402344 -436.57234375 178.82304687 -436.8671875 178.15234375 C-439 173.2265625 -439 173.2265625 -439 171 C-439.66 171 -440.32 171 -441 171 C-441.6708712 169.3767313 -442.33657029 167.75132422 -443 166.125 C-443.37125 165.22007812 -443.7425 164.31515625 -444.125 163.3828125 C-445 161 -445 161 -445 159 C-445.66 159 -446.32 159 -447 159 C-447.268125 158.319375 -447.53625 157.63875 -447.8125 156.9375 C-450.64431173 149.93249205 -453.81210524 143.21140516 -457.3203125 136.52148438 C-459.11918284 133.03181536 -460.48787866 129.90869081 -461 126 C-461.66 126 -462.32 126 -463 126 C-463.83764268 124.04350603 -464.66999059 122.08474444 -465.5 120.125 C-465.9640625 119.03445313 -466.428125 117.94390625 -466.90625 116.8203125 C-468 114 -468 114 -468 112 C-468.66 112 -469.32 112 -470 112 C-470.38929688 111.06542969 -470.77859375 110.13085938 -471.1796875 109.16796875 C-475.52856151 98.89725197 -480.54889407 89.09682063 -485.80078125 79.26367188 C-490.43552864 70.51502005 -494.72607016 61.59543659 -498.96875 52.65185547 C-499.4328125 51.67361816 -499.896875 50.69538086 -500.375 49.6875 C-500.83777344 48.71184082 -501.30054688 47.73618164 -501.77734375 46.73095703 C-505.22256908 39.51392772 -508.85012934 32.41324828 -512.65185547 25.37768555 C-520 11.71274222 -520 11.71274222 -520 7 C-520.66 7 -521.32 7 -522 7 C-522.33 5.02 -522.66 3.04 -523 1 C-498.58 1 -474.16 1 -449 1 C-442 14 -442 14 -440 19 C-439.3452237 20.31344236 -438.66812425 21.61600254 -437.96875 22.90625 C-437.37791626 24.00718994 -437.37791626 24.00718994 -436.77514648 25.13037109 C-436.35434814 25.91234863 -435.9335498 26.69432617 -435.5 27.5 C-431.66103122 34.7206977 -427.97633061 42.00243624 -424.4375 49.375 C-423.79361328 50.70241211 -423.79361328 50.70241211 -423.13671875 52.05664062 C-422.54117188 53.30864258 -422.54117188 53.30864258 -421.93359375 54.5859375 C-421.58353271 55.3186084 -421.23347168 56.0512793 -420.87280273 56.80615234 C-419.92632805 59.18517935 -419.42951617 61.48042996 -419 64 C-418.34 64 -417.68 64 -417 64 C-416.16235732 65.95649397 -415.33000941 67.91525556 -414.5 69.875 C-413.80390625 71.51082031 -413.80390625 71.51082031 -413.09375 73.1796875 C-412 76 -412 76 -412 78 C-411.34 78 -410.68 78 -410 78 C-409.16235732 79.95649397 -408.33000941 81.91525556 -407.5 83.875 C-406.80390625 85.51082031 -406.80390625 85.51082031 -406.09375 87.1796875 C-405 90 -405 90 -405 92 C-404.34 92 -403.68 92 -403 92 C-401.9955866 94.2898234 -400.99632388 96.5816599 -400 98.875 C-399.71382813 99.52597656 -399.42765625 100.17695313 -399.1328125 100.84765625 C-397 105.7734375 -397 105.7734375 -397 108 C-396.34 108 -395.68 108 -395 108 C-393.9955866 110.2898234 -392.99632388 112.5816599 -392 114.875 C-391.71382812 115.52597656 -391.42765625 116.17695313 -391.1328125 116.84765625 C-389 121.7734375 -389 121.7734375 -389 124 C-388.34 124 -387.68 124 -387 124 C-386.3291288 125.6232687 -385.66342971 127.24867578 -385 128.875 C-384.62875 129.77992188 -384.2575 130.68484375 -383.875 131.6171875 C-383 134 -383 134 -383 136 C-382.34 136 -381.68 136 -381 136 C-380.68546875 136.7734375 -380.3709375 137.546875 -380.046875 138.34375 C-377.57612859 144.35689186 -375.00204329 150.23512005 -372 156 C-371.24596303 157.4562501 -370.49591659 158.91457384 -369.75 160.375 C-369.41484375 161.02210938 -369.0796875 161.66921875 -368.734375 162.3359375 C-368 164 -368 164 -368 166 C-367.34 166 -366.68 166 -366 166 C-365.79842285 166.54003662 -365.5968457 167.08007324 -365.38916016 167.63647461 C-364.47505367 170.0729543 -363.55018875 172.50520815 -362.625 174.9375 C-362.30789063 175.78763672 -361.99078125 176.63777344 -361.6640625 177.51367188 C-361.3546875 178.32255859 -361.0453125 179.13144531 -360.7265625 179.96484375 C-360.44377441 180.7137085 -360.16098633 181.46257324 -359.86962891 182.23413086 C-359.12878157 184.18761999 -359.12878157 184.18761999 -357 185 C-355.69067492 188.03389325 -354.52947115 191.09071977 -353.38671875 194.18945312 C-351.71732216 198.57053796 -349.63128214 202.09220365 -347 206 C-345.31842882 209.20445689 -343.78181319 212.47181999 -342.25 215.75 C-341.83878906 216.61238281 -341.42757812 217.47476563 -341.00390625 218.36328125 C-338 224.74034468 -338 224.74034468 -338 227 C-337.34 227 -336.68 227 -336 227 C-335.16235732 228.95649397 -334.33000941 230.91525556 -333.5 232.875 C-333.0359375 233.96554687 -332.571875 235.05609375 -332.09375 236.1796875 C-331 239 -331 239 -331 241 C-330.34 241 -329.68 241 -329 241 C-328.16013916 242.93467942 -327.32831973 244.87285129 -326.5 246.8125 C-326.0359375 247.89144531 -325.571875 248.97039062 -325.09375 250.08203125 C-324 253 -324 253 -324 256 C-323.34 256 -322.68 256 -322 256 C-321.53851563 257.07894531 -321.07703125 258.15789062 -320.6015625 259.26953125 C-316.74075906 268.18380029 -312.59401898 276.8420524 -307.99462891 285.39770508 C-303.90700193 293.05292633 -300.19421794 300.87163199 -296.47729492 308.71191406 C-292.94343426 316.12988405 -289.19849203 323.40289408 -285.31225586 330.64111328 C-282.5439127 335.84079381 -280.14576977 341.04943704 -278.03515625 346.5546875 C-277.05036585 349.04228955 -277.05036585 349.04228955 -275.58203125 351.34960938 C-274.11498769 353.80736013 -272.86314662 356.26016307 -271.65234375 358.8515625 C-271.21712402 359.77549805 -270.7819043 360.69943359 -270.33349609 361.65136719 C-269.87281738 362.63266602 -269.41213867 363.61396484 -268.9375 364.625 C-265.40540579 372.08909253 -261.77206907 379.46972726 -257.875 386.75 C-254.46257617 393.14371902 -251.18600751 399.58479449 -248.0625 406.125 C-247.51408447 407.26146973 -247.51408447 407.26146973 -246.95458984 408.42089844 C-244.55637841 413.49985953 -242.66224716 418.63622956 -241 424 C-240.34 424 -239.68 424 -239 424 C-238.16235732 425.95649397 -237.33000941 427.91525556 -236.5 429.875 C-236.0359375 430.96554687 -235.571875 432.05609375 -235.09375 433.1796875 C-234 436 -234 436 -234 438 C-233.34 438 -232.68 438 -232 438 C-231.16260219 440.1234016 -230.33019717 442.2487728 -229.5 444.375 C-229.0359375 445.55835938 -228.571875 446.74171875 -228.09375 447.9609375 C-227 451 -227 451 -227 453 C-225.68 453.33 -224.36 453.66 -223 454 C-222.69255859 452.95199219 -222.69255859 452.95199219 -222.37890625 451.8828125 C-222.10949219 450.97273438 -221.84007812 450.06265625 -221.5625 449.125 C-221.29566406 448.22007812 -221.02882813 447.31515625 -220.75390625 446.3828125 C-220 444 -220 444 -219 442 C-218.34 442 -217.68 442 -217 442 C-216.62875 440.7934375 -216.62875 440.7934375 -216.25 439.5625 C-214.73921353 435.25675857 -212.89811144 431.14635993 -211 427 C-210.34 427 -209.68 427 -209 427 C-208.81824219 426.40832031 -208.63648438 425.81664062 -208.44921875 425.20703125 C-207.03385485 420.7577078 -205.52656118 416.9546175 -203 413 C-202.31867549 411.33927151 -201.65257873 409.672233 -201 408 C-198.3 402.15 -198.3 402.15 -196 401 C-195.31348721 399.48472402 -194.70467305 397.93427556 -194.125 396.375 C-191.07345759 388.75988965 -187.22065093 381.59722035 -183.36572266 374.36279297 C-180.34056472 368.66387944 -177.51949957 362.9409966 -175 357 C-174.34 357 -173.68 357 -173 357 C-172.80664062 356.39671875 -172.61328125 355.7934375 -172.4140625 355.171875 C-172.02347656 353.97304688 -172.02347656 353.97304688 -171.625 352.75 C-171.36976563 351.96109375 -171.11453125 351.1721875 -170.8515625 350.359375 C-170.04826333 348.13372042 -169.10288338 346.09068328 -168 344 C-167.34 344 -166.68 344 -166 344 C-165.855625 343.2575 -165.71125 342.515 -165.5625 341.75 C-165 339 -165 339 -164.265625 337.25 C-163.85416169 333.76466375 -165.57390063 331.22697856 -167.1875 328.25 C-167.80608457 327.06775803 -168.42457333 325.88546592 -169.04296875 324.703125 C-169.36313965 324.10056885 -169.68331055 323.4980127 -170.01318359 322.87719727 C-171.37943369 320.27821235 -172.68593285 317.65089687 -173.9934082 315.02197266 C-174.98865422 313.02279063 -175.99302007 311.02845002 -177 309.03515625 C-187 289.19969456 -187 289.19969456 -187 285 C-187.66 285 -188.32 285 -189 285 C-191.34205919 279.75824848 -193.25192871 274.46737191 -195 269 C-195.66 269 -196.32 269 -197 269 C-197.83986084 267.06532058 -198.67168027 265.12714871 -199.5 263.1875 C-200.19609375 261.56908203 -200.19609375 261.56908203 -200.90625 259.91796875 C-202 257 -202 257 -202 254 C-202.66 254 -203.32 254 -204 254 C-205.80085662 250.31692004 -207.58900718 246.62780767 -209.375 242.9375 C-209.88289063 241.89916016 -210.39078125 240.86082031 -210.9140625 239.79101562 C-213.42639832 234.58453021 -215.67319017 229.63494534 -217 224 C-217.66 224 -218.32 224 -219 224 C-219.268125 223.319375 -219.53625 222.63875 -219.8125 221.9375 C-222.66889604 214.87167821 -225.87266777 208.09536153 -229.40820312 201.34570312 C-232 196.31632378 -232 196.31632378 -232 193 C-232.66 193 -233.32 193 -234 193 C-234.43570312 191.98421875 -234.87140625 190.9684375 -235.3203125 189.921875 C-238.63827132 182.23709655 -242.05980356 174.68173416 -245.93359375 167.2578125 C-247 165 -247 165 -247 163 C-247.66 163 -248.32 163 -249 163 C-249.38929688 162.06542969 -249.77859375 161.13085938 -250.1796875 160.16796875 C-253.92812041 151.32162145 -258.07742733 142.80540127 -262.71044922 134.38549805 C-264.75875936 130.61240039 -266.52996257 127.34349402 -267 123 C-267.66 123 -268.32 123 -269 123 C-269.37125 122.0925 -269.7425 121.185 -270.125 120.25 C-271.57939219 116.8472711 -273.20647773 113.55264203 -274.875 110.25 C-283 94.121875 -283 94.121875 -283 91 C-283.66 91 -284.32 91 -285 91 C-285.1959375 90.46375 -285.391875 89.9275 -285.59375 89.375 C-288.52924878 81.68196871 -292.20559753 74.42457473 -295.93554688 67.09667969 C-297.97184616 63.08573055 -299.97377425 59.05755709 -301.98144531 55.03222656 C-303.73602246 51.51786581 -305.50109116 48.00929441 -307.28125 44.5078125 C-307.6525 43.77433594 -308.02375 43.04085937 -308.40625 42.28515625 C-309.12174843 40.87204685 -309.84037584 39.46051629 -310.5625 38.05078125 C-313 33.2249244 -313 33.2249244 -313 31 C-313.66 31 -314.32 31 -315 31 C-315.44730469 29.96101563 -315.89460937 28.92203125 -316.35546875 27.8515625 C-316.96549653 26.44242707 -317.57622082 25.03359303 -318.1875 23.625 C-318.50340088 22.89635742 -318.81930176 22.16771484 -319.14477539 21.41699219 C-321.29127307 16.50791777 -323.59178633 11.72507467 -326.15234375 7.015625 C-327 5 -327 5 -327 1 C-304.56 1 -282.12 1 -259 1 C-247 25 -247 25 -245.02734375 28.95703125 C-243.61915909 31.77547042 -242.19183594 34.58334441 -240.75390625 37.38671875 C-240.38716797 38.10666016 -240.02042969 38.82660156 -239.64257812 39.56835938 C-238.94180562 40.94329278 -238.23634684 42.31585157 -237.52539062 43.68554688 C-235.78969991 47.10390314 -234.51729029 50.1895377 -234 54 C-233.34 54 -232.68 54 -232 54 C-218.66666667 80.66666667 -205.33333333 107.33333333 -192 134 C-191.6702417 134.65943604 -191.3404834 135.31887207 -191.00073242 135.99829102 C-190.33136413 137.3371909 -189.66225775 138.67622176 -188.9934082 140.01538086 C-187.37015399 143.26464926 -185.74304409 146.51182933 -184.10546875 149.75390625 C-179.62213241 158.64710044 -175.29720045 167.60986999 -171.02099609 176.60449219 C-167.82916817 183.30699402 -164.54380391 189.95125657 -161.14453125 196.55078125 C-160 199 -160 199 -160 201 C-159.34 201 -158.68 201 -158 201 C-157.68289063 201.79019531 -157.36578125 202.58039063 -157.0390625 203.39453125 C-153.65694843 211.56953073 -149.81464755 219.37985516 -145.60400391 227.16137695 C-143.15972327 231.69820499 -140.92924973 236.2598586 -138.9050293 241.00024414 C-138.01969215 242.95648817 -137.02622613 244.77547113 -135.9375 246.625 C-133.17897288 251.43017626 -131 255.33878861 -131 261 C-130.01 261 -129.02 261 -128 261 C-127.9175 260.195625 -127.835 259.39125 -127.75 258.5625 C-126.79803325 254.04065795 -124.98419821 250.15297299 -123 246 C-122.34 246 -121.68 246 -121 246 C-120.9175 245.360625 -120.835 244.72125 -120.75 244.0625 C-119.70479628 239.79458483 -117.85908174 235.96892333 -116 232 C-115.34 232 -114.68 232 -114 232 C-113.41798828 230.11474609 -113.41798828 230.11474609 -112.82421875 228.19140625 C-110.9428161 222.54719829 -108.41753359 217.27763305 -105.8125 211.9375 C-105.34908203 210.97650391 -104.88566406 210.01550781 -104.40820312 209.02539062 C-103.2769354 206.6812173 -102.14080989 204.33954029 -101 202 C-100.34 202 -99.68 202 -99 202 C-98.70996094 200.98679687 -98.70996094 200.98679687 -98.4140625 199.953125 C-98.02347656 198.61507812 -98.02347656 198.61507812 -97.625 197.25 C-97.36976563 196.36828125 -97.11453125 195.4865625 -96.8515625 194.578125 C-96.0790066 192.23919428 -95.16374324 190.16557438 -94 188 C-93.34 188 -92.68 188 -92 188 C-91.76216797 187.18208984 -91.76216797 187.18208984 -91.51953125 186.34765625 C-90.25502474 182.26071532 -88.86611251 178.5645857 -86.6875 174.875 C-83.01903553 168.60058363 -80.59492711 161.76821194 -78 155 C-77.34 155 -76.68 155 -76 155 C-75.67 153.845 -75.34 152.69 -75 151.5 C-72.52000427 143.97574112 -68.62086693 137.0225334 -65 130 C-64.67 129.34 -64.34 128.68 -64 128 C-63.34 128 -62.68 128 -62 128 C-61.9175 127.360625 -61.835 126.72125 -61.75 126.0625 C-60.70479628 121.79458483 -58.85908174 117.96892333 -57 114 C-56.34 114 -55.68 114 -55 114 C-54.9175 113.360625 -54.835 112.72125 -54.75 112.0625 C-52.79962204 104.09845666 -48.42882803 96.76971723 -44.73022461 89.49682617 C-43.3082104 86.68910306 -41.99687364 83.99062093 -41 81 C-40.34 81 -39.68 81 -39 81 C-38.67 79.845 -38.34 78.69 -38 77.5 C-35.72809078 70.66273766 -32.29642046 64.36365044 -29.01220703 57.97167969 C-27.53437567 55.09300962 -26.07781909 52.20385985 -24.625 49.3125 C-23.93277344 47.94544922 -23.93277344 47.94544922 -23.2265625 46.55078125 C-21.95205422 43.99735897 -21.95205422 43.99735897 -20.9609375 41.23046875 C-20 39 -20 39 -18 38 C-16.87955751 35.48916386 -15.85252068 33.00290713 -14.875 30.4375 C-14.59785156 29.72658203 -14.32070313 29.01566406 -14.03515625 28.28320312 C-13.35057404 26.52453504 -12.67448365 24.76256576 -12 23 C-11.34 23 -10.68 23 -10 23 C-9.649375 21.80375 -9.29875 20.6075 -8.9375 19.375 C-6.52565424 12.68407305 -3.18073902 6.36147803 0 0 Z " fill="#01EC8A" transform="translate(623,158)"/>
</svg>
